<?xml version="1.0" encoding="UTF-8"?><svg xmlns="http://www.w3.org/2000/svg" viewBox="0 0 297.5 212.53"><g id="a"/><g id="b"><g id="c"><g><path d="M247.58,208.78c-.5-1.7-2.33-2.28-3.63-3.25-19.97-13.02-41.32-23.87-60.55-38.03-6.95-4.95-13.75-10.14-21.09-14.52-6.13-3.82-13.95-7.86-17.2-10.96-3.4-3.39-8.66,1.78-5.24,5.24,9.88,8.2,21.9,13.43,31.99,21.42,22.73,16.74,47.65,30.54,72.45,43.81,2.01,.42,3.86-1.77,3.25-3.7Z" fill="#4262ff"/><path d="M257.21,154.18c-25.42-12.12-51.75-22.05-77.87-32.49-1.57-.43-11.96-5.89-16.29-7.65-3.09-.6-4.69,4.01-1.9,5.51,15.35,8.27,31.77,14.2,47.98,20.54,15.36,5.92,32.59,14.05,46.2,19.55,3.06,.59,4.65-3.97,1.88-5.45Z" fill="#4262ff"/><path d="M272.42,107.51c-18.04-6.45-36.07-13.13-54.68-17.76-14.15-3.11-28.57-5.31-42.89-7.16-3.52,.27-3.89,5.72-.45,6.53,14.2,2.45,28.53,4.28,42.55,7.68,18.22,4.63,35.88,11.17,53.77,16.91,4.02,1.09,5.77-5.05,1.71-6.2Z" fill="#4262ff"/><path d="M295.15,73.7c-21.16-7.23-43.22-11.3-65.31-14.44-16.05-1.8-32.42-4.44-48.53-3.82-3.02,1.09-2.06,5.96,1.18,5.85,37.92,1.71,73.23,8.04,110.88,18.69,4.09,1.2,5.96-5.1,1.79-6.28Z" fill="#4262ff"/><path d="M25.78,87.97c-1.19,4.04-3.22,8.18-3.38,12.38,.18,3.07,4.07,4.86,6.63,3.26,2.37-1.41,2.38-4.43,3.26-6.77,.53-2.78,2.38-5.44,2.21-8.27-.36-4.72-7.63-5.17-8.71-.59Z" fill="#4262ff"/><path d="M21.86,115.57c-.75,6.66,8.36,8.12,8.98,1.36,.92-6.71-8.41-8.14-8.98-1.36Z" fill="#4262ff"/><path d="M120.07,57.09c-2.13-.55-4.57-1.58-6.63-.33-3.37,1.82-2.65,7.28,1.07,8.18,1.82,.32,3.58,.89,5.29,1.59,.13,.06,.25,.11,.44,.2,2.22,1.51,5.49,1.25,6.88-1.24,2.64-4.92-3.3-7.24-7.05-8.4Z" fill="#4262ff"/><path d="M88.38,157.59c-3.68,0-7.74-1.31-12.02-3.91-10.83-6.58-19-17-22.87-29.02-10.73,5.63-20.69,9.12-30.36,10.65-3.49,.55-7.95,.87-11.59-1.54-3.84-2.54-5.74-7.31-5.66-14.18,.19-16.22,6.43-31.75,12.19-45.58-2.59-3.6-5.49-7.16-8.47-10.78-3.32-4.04-7.09-8.61-8.8-14.32-1.71-5.68-.98-13.38,4.5-17.76,3.71-2.96,8.39-3.51,12.48-3.65,8.76-.34,18.08,.81,30.83,3.71,7.89-10.65,17.94-19.95,29.17-26.97,4.28-2.68,9.93-5.51,15.75-3.66,4.86,1.55,8.48,6,10.76,13.24,2.43,7.72,3.5,16.07,3.35,26.06,10.59,1.05,21.05,4.22,30.42,9.24,6.97,3.74,10.56,8.07,10.99,13.24,.52,6.4-4.27,11.38-7.92,14.57-9.22,8.05-19.76,14.53-33.46,22.59,.74,13.62-.38,27.27-3.33,40.6-1.25,5.66-3.72,13.52-10.65,16.43-1.65,.69-3.44,1.04-5.32,1.04Zm-32.88-40.86c.44,0,.88,.09,1.29,.27,.92,.4,1.6,1.22,1.83,2.2,2.79,11.85,10.67,22.69,21.07,29.01,3.24,1.96,7.87,3.97,11.53,2.43,3.19-1.34,5.37-5.12,6.87-11.9,2.96-13.38,3.99-27.09,3.07-40.77-.08-1.21,.53-2.37,1.58-2.98,14.23-8.34,25.01-14.87,34.18-22.88,4.14-3.62,5.97-6.55,5.75-9.22-.23-2.79-2.79-5.52-7.62-8.12-9.47-5.08-20.14-8.1-30.87-8.74-1.74-.1-3.08-1.58-3.01-3.32,.41-10.62-.54-19.19-2.98-26.96-1.61-5.13-3.82-8.18-6.58-9.05-3.29-1.05-7.3,1.05-10.41,2.99-11.13,6.96-21.02,16.29-28.61,26.99-.75,1.06-2.08,1.55-3.35,1.27-13.24-3.12-22.56-4.33-31.22-4.02-3.05,.11-6.46,.45-8.7,2.25-3.12,2.49-3.41,7.4-2.36,10.91,1.34,4.46,4.53,8.34,7.61,12.08,3.46,4.2,6.82,8.33,9.8,12.62,.62,.9,.75,2.06,.33,3.07-5.72,13.69-12.2,29.21-12.38,44.83-.06,4.55,.88,7.5,2.78,8.76,1.79,1.18,4.56,.94,7.05,.55,9.97-1.57,20.37-5.45,31.8-11.85,.49-.27,1.02-.41,1.56-.41Z" fill="#4262ff"/></g></g></g></svg>