<?xml version="1.0" encoding="UTF-8"?><svg xmlns="http://www.w3.org/2000/svg" viewBox="0 0 159.04 165.61"><g id="a"/><g id="b"><g id="c"><path d="M158.15,50.15c1.27-4.43,.42-10.29,.89-15.04-.02-10.77-.35-21.75-1.44-32.4-1.57-4.5-8.78-3.02-8.58,1.72,.57,13.08,1.44,26.14,.97,39.24,.16,1.98-.17,4.14,.54,6.01,1.12,3.28,6.05,3.49,7.63,.47Z" fill="#4262ff"/><path d="M116.6,67.3c-7.15-11.51-15.44-22.49-23.46-33.32-3.6-3.06-9.05,1.79-6.55,5.78,7.81,11.09,15.85,22.2,23.46,33.32,3.61,3.06,9.04-1.79,6.55-5.78Z" fill="#4262ff"/><path d="M83.31,113.34c3.35-7.06-9.3-8.82-13.7-11.17-8.41-3.11-17.06-5.52-25.71-7.87-2.16-.52-4.52-1.76-6.63-.46-3.42,1.82-2.67,7.37,1.12,8.22,10.63,2.95,21.33,5.74,31.6,9.79,1.62,.65,3.23,1.31,4.81,2.05,2.81,1.67,6.47,2.96,8.49-.55Z" fill="#4262ff"/><path d="M57.97,158.12c-3.44-2.58-12.64-1.33-19.76-2.21-8.87-.49-17.76-.79-26.65-.73-3.36,.42-7.54-.93-10.29,1.47-2.8,2.65-.65,7.77,3.21,7.62,13.17-.44,26.34,.14,39.49,.89,4.66,.2,11.29,.87,12.6,0,2.84-.94,3.56-5.04,1.4-7.04Z" fill="#4262ff"/></g></g></svg>