<svg xmlns="http://www.w3.org/2000/svg" viewBox="0 0 277.66 93.08"><path d="M93.49,59.48a26,26,0,0,1-7-.9,14.29,14.29,0,0,1-5-2.28l4.6-6.14a15.11,15.11,0,0,0,4.16,2.07,16.23,16.23,0,0,0,5.12.81,12.86,12.86,0,0,0,3-.29,4.42,4.42,0,0,0,1.81-.84,2.53,2.53,0,0,0,.87-1.29,1.28,1.28,0,0,0-.52-1.53,7.22,7.22,0,0,0-2.25-1q-1.44-.41-3.15-.75a27.41,27.41,0,0,1-3.43-1,10.42,10.42,0,0,1-3-1.54A5.06,5.06,0,0,1,87,42.38a6.84,6.84,0,0,1,.17-3.89A11.12,11.12,0,0,1,90,33.76a15.15,15.15,0,0,1,5.48-3.43,22.14,22.14,0,0,1,7.9-1.29,24.33,24.33,0,0,1,5.74.65,13.47,13.47,0,0,1,4.59,1.94l-4.37,6.11A14.58,14.58,0,0,0,105.48,36a15.23,15.23,0,0,0-4-.54,10.22,10.22,0,0,0-3,.37,5.08,5.08,0,0,0-1.85,1,2.77,2.77,0,0,0-.84,1.25,1.31,1.31,0,0,0,.52,1.57,6.68,6.68,0,0,0,2.23.92c.95.24,2,.48,3.18.73a32.72,32.72,0,0,1,3.43.94,10.85,10.85,0,0,1,3,1.51,5,5,0,0,1,1.81,2.46,6.42,6.42,0,0,1-.13,3.83A11,11,0,0,1,107,54.74a15.49,15.49,0,0,1-5.52,3.45A22.25,22.25,0,0,1,93.49,59.48Z" fill="#0c0f27"/><path d="M123.85,58.9l6.47-22.71h-9.4l1.87-6.57h27.43l-1.87,6.57H139L132.51,58.9Z" fill="#0c0f27"/><path d="M166.51,59.48a17,17,0,0,1-6.44-1.13,10.92,10.92,0,0,1-4.49-3.2,10.44,10.44,0,0,1-2.18-4.85,13.44,13.44,0,0,1,.45-6.08,18.28,18.28,0,0,1,3-6,23.16,23.16,0,0,1,5-4.83,22.76,22.76,0,0,1,6.29-3.2,22.36,22.36,0,0,1,7.1-1.13,16.94,16.94,0,0,1,6.46,1.13,11,11,0,0,1,4.48,3.18,10.28,10.28,0,0,1,2.19,4.8,13.26,13.26,0,0,1-.44,6.07,19,19,0,0,1-3,6.13,22.21,22.21,0,0,1-4.94,4.83,23.8,23.8,0,0,1-6.31,3.17A22.42,22.42,0,0,1,166.51,59.48Zm2-6.86a10.28,10.28,0,0,0,3.42-.58A11.06,11.06,0,0,0,175,50.35a11.85,11.85,0,0,0,2.5-2.64,11.18,11.18,0,0,0,1.62-3.45,8.56,8.56,0,0,0,.35-3.45,5.62,5.62,0,0,0-1-2.63,5.09,5.09,0,0,0-2.14-1.7,7.67,7.67,0,0,0-3.09-.58,10.34,10.34,0,0,0-3.43.58,11.53,11.53,0,0,0-5.63,4.33,11.87,11.87,0,0,0-1.6,3.45,9,9,0,0,0-.37,3.45,5.39,5.39,0,0,0,1,2.64A5.31,5.31,0,0,0,165.38,52,7.64,7.64,0,0,0,168.47,52.62Z" fill="#0c0f27"/><path d="M194.85,58.9l8.35-29.28h14a16,16,0,0,1,6.89,1.3,6.88,6.88,0,0,1,3.64,3.74,9,9,0,0,1,0,5.75,13.35,13.35,0,0,1-3.29,5.77,15.34,15.34,0,0,1-5.75,3.66A21.67,21.67,0,0,1,211,51.12h-9.19l4.9-3.51L203.52,58.9Zm11.61-10.33-2.8-3.85h8.67a7.75,7.75,0,0,0,4.39-1.13A5.49,5.49,0,0,0,219,40.41a3.11,3.11,0,0,0-.47-3.11c-.68-.77-1.93-1.15-3.74-1.15h-8.66l5-3.81Zm7.29,10.33-4.57-10.67h9.23L223,58.9Z" fill="#0c0f27"/><path d="M233.79,58.9l8.35-29.28h7.13l7,19.91h-3.77l18.06-19.91h7.13l-8.3,29.28h-8l5-17.69h1.36L254.26,56h-3.85l-5.28-14.8h1.67L241.75,58.9Z" fill="#0c0f27"/><path d="M22.06,51.94l-.48-.43H6A.82.82,0,0,1,5.25,51a.81.81,0,0,1,.12-.89L42.69,5.49a.84.84,0,0,1,1.46.73L37.22,34.93h5.31l6.64-27.5A5.9,5.9,0,0,0,46,.66a5.91,5.91,0,0,0-7.3,1.51L1.41,46.82A6,6,0,0,0,6,56.67h14.9Z" fill="#0c0f27"/><path d="M21.32,93.08a6.09,6.09,0,0,1-2.75-.67,5.9,5.9,0,0,1-3.13-6.76l8.14-33.73a.86.86,0,0,0-.25-.82l-4.69-4.24a5.91,5.91,0,0,1-2-5,6,6,0,0,1,6-5.5H58.6a6,6,0,0,1,4.6,9.85L25.88,90.9A5.94,5.94,0,0,1,21.32,93.08Zm1.34-51.51a.84.84,0,0,0-.84.79.78.78,0,0,0,.28.67l4.69,4.24a6,6,0,0,1,1.81,5.86L20.46,86.86a.83.83,0,0,0,1.45.73L59.24,43a.82.82,0,0,0,.11-.9.79.79,0,0,0-.75-.48Z" fill="#4262ff"/></svg>